<svg width="28" height="29" viewBox="0 0 28 29" fill="none" xmlns="http://www.w3.org/2000/svg">
<circle cx="14" cy="14.5837" r="14" fill="white"/>
<circle cx="14" cy="14.5837" r="13.5" stroke="black" stroke-opacity="0.2"/>
<path fill-rule="evenodd" clip-rule="evenodd" d="M14.6068 7.8103C11.0159 7.8103 8.12695 10.6993 8.12695 14.2902C8.12695 17.1522 9.98992 19.5821 12.5549 20.4461C12.8789 20.5001 12.9869 20.3111 12.9869 20.1221C12.9869 19.9601 12.9869 19.5551 12.9869 19.0151C11.1779 19.4201 10.7999 18.1511 10.7999 18.1511C10.5029 17.3951 10.0709 17.2062 10.0709 17.2062C9.47693 16.8012 10.1249 16.8012 10.1249 16.8012C10.7729 16.8552 11.1239 17.4761 11.1239 17.4761C11.6909 18.4751 12.6359 18.1781 13.0139 18.0161C13.0679 17.5841 13.2299 17.3142 13.4189 17.1522C11.9879 16.9902 10.4759 16.4232 10.4759 13.9392C10.4759 13.2372 10.7189 12.6432 11.1509 12.2112C11.0969 12.0492 10.8539 11.4012 11.2049 10.4833C11.2049 10.4833 11.7449 10.3213 12.9869 11.1582C13.4999 11.0233 14.0669 10.9423 14.6068 10.9423C15.1468 10.9423 15.7138 11.0233 16.2268 11.1582C17.4688 10.3213 18.0088 10.4833 18.0088 10.4833C18.3598 11.3742 18.1438 12.0222 18.0628 12.2112C18.4678 12.6702 18.7378 13.2372 18.7378 13.9392C18.7378 16.4232 17.2258 16.9632 15.7678 17.1252C16.0108 17.3141 16.1998 17.7191 16.1998 18.3131C16.1998 19.1771 16.1998 19.8791 16.1998 20.0951C16.1998 20.2571 16.3078 20.4731 16.6588 20.4191C19.2238 19.5821 21.0867 17.1522 21.0867 14.2902C21.0867 10.6993 18.1978 7.8103 14.6068 7.8103Z" fill="black"/>
</svg>
