<svg width="28" height="29" viewBox="0 0 28 29" fill="none" xmlns="http://www.w3.org/2000/svg">
<circle cx="14" cy="14.5837" r="14" fill="white"/>
<circle cx="14" cy="14.5837" r="13.5" stroke="black" stroke-opacity="0.2"/>
<path d="M14.0008 9.03095C15.8095 9.03095 16.0237 9.03772 16.7382 9.0703C17.1678 9.07556 17.5933 9.15444 17.9962 9.30353C18.2884 9.41622 18.5538 9.58885 18.7753 9.8103C18.9967 10.0318 19.1694 10.2971 19.282 10.5893C19.4311 10.9923 19.51 11.4178 19.5153 11.8474C19.5475 12.5619 19.5546 12.7761 19.5546 14.5848C19.5546 16.3935 19.5479 16.6077 19.5153 17.3222C19.51 17.7518 19.4311 18.1774 19.282 18.5803C19.1694 18.8725 18.9967 19.1379 18.7753 19.3593C18.5538 19.5808 18.2884 19.7534 17.9962 19.8661C17.5933 20.0152 17.1678 20.0941 16.7382 20.0993C16.024 20.1316 15.8098 20.1387 14.0008 20.1387C12.1917 20.1387 11.9775 20.1319 11.2633 20.0993C10.8337 20.0941 10.4082 20.0152 10.0053 19.8661C9.71307 19.7534 9.44769 19.5808 9.22624 19.3593C9.00479 19.1379 8.83216 18.8725 8.71947 18.5803C8.57038 18.1774 8.4915 17.7518 8.48624 17.3222C8.45398 16.6077 8.44689 16.3935 8.44689 14.5848C8.44689 12.7761 8.45366 12.5619 8.48624 11.8474C8.4915 11.4178 8.57038 10.9923 8.71947 10.5893C8.83216 10.2971 9.00479 10.0318 9.22624 9.8103C9.44769 9.58885 9.71307 9.41622 10.0053 9.30353C10.4082 9.15444 10.8337 9.07556 11.2633 9.0703C11.9779 9.03804 12.192 9.03095 14.0008 9.03095ZM14.0008 7.8103C12.162 7.8103 11.9304 7.81804 11.2079 7.85095C10.6456 7.86213 10.0893 7.96859 9.56269 8.16579C9.11092 8.336 8.70172 8.60274 8.36366 8.9474C8.01869 9.28558 7.75172 9.69501 7.5814 10.1471C7.3842 10.6737 7.27775 11.23 7.26656 11.7922C7.2343 12.5142 7.22656 12.7458 7.22656 14.5845C7.22656 16.4232 7.2343 16.6548 7.26721 17.3774C7.27839 17.9396 7.38485 18.4959 7.58205 19.0226C7.75218 19.4746 8.01892 19.884 8.36366 20.2222C8.70191 20.567 9.11133 20.8337 9.56334 21.0038C10.09 21.201 10.6463 21.3075 11.2085 21.3187C11.9311 21.3509 12.1617 21.3593 14.0014 21.3593C15.8411 21.3593 16.0717 21.3516 16.7943 21.3187C17.3565 21.3075 17.9128 21.201 18.4395 21.0038C18.8893 20.8295 19.2978 20.5631 19.6389 20.2219C19.98 19.8806 20.246 19.4719 20.4201 19.0219C20.6173 18.4953 20.7238 17.939 20.735 17.3768C20.7672 16.6548 20.775 16.4232 20.775 14.5845C20.775 12.7458 20.7672 12.5142 20.7343 11.7916C20.7231 11.2293 20.6167 10.6731 20.4195 10.1464C20.2493 9.69442 19.9826 9.285 19.6379 8.94675C19.2996 8.60202 18.8902 8.33527 18.4382 8.16514C17.9115 7.96794 17.3553 7.86149 16.793 7.8503C16.0711 7.81804 15.8395 7.8103 14.0008 7.8103Z" fill="black"/>
<path d="M14.0021 11.1072C13.3141 11.1072 12.6416 11.3112 12.0695 11.6934C11.4974 12.0757 11.0515 12.619 10.7882 13.2546C10.5249 13.8903 10.4561 14.5897 10.5903 15.2645C10.7245 15.9394 11.0558 16.5592 11.5423 17.0457C12.0288 17.5322 12.6487 17.8635 13.3235 17.9978C13.9983 18.132 14.6977 18.0631 15.3334 17.7998C15.969 17.5365 16.5123 17.0906 16.8946 16.5186C17.2768 15.9465 17.4809 15.2739 17.4809 14.5859C17.4809 13.6633 17.1144 12.7785 16.462 12.1261C15.8096 11.4737 14.9248 11.1072 14.0021 11.1072ZM14.0021 16.844C13.5555 16.844 13.119 16.7115 12.7476 16.4634C12.3763 16.2153 12.0869 15.8626 11.916 15.45C11.7451 15.0374 11.7003 14.5834 11.7875 14.1454C11.8746 13.7073 12.0897 13.305 12.4055 12.9892C12.7213 12.6734 13.1236 12.4583 13.5616 12.3712C13.9996 12.2841 14.4537 12.3288 14.8663 12.4997C15.2789 12.6706 15.6315 12.96 15.8797 13.3314C16.1278 13.7027 16.2602 14.1393 16.2602 14.5859C16.2602 15.1848 16.0223 15.7591 15.5988 16.1826C15.1754 16.606 14.601 16.844 14.0021 16.844Z" fill="black"/>
<path d="M17.6176 11.7818C18.0665 11.7818 18.4305 11.4179 18.4305 10.9689C18.4305 10.52 18.0665 10.156 17.6176 10.156C17.1686 10.156 16.8047 10.52 16.8047 10.9689C16.8047 11.4179 17.1686 11.7818 17.6176 11.7818Z" fill="black"/>
</svg>
