<svg width="28" height="29" viewBox="0 0 28 29" fill="none" xmlns="http://www.w3.org/2000/svg">
<circle cx="14" cy="14.5837" r="14" fill="white"/>
<circle cx="14" cy="14.5837" r="13.5" stroke="black" stroke-opacity="0.2"/>
<path d="M20.2071 11.5668C19.7881 11.7531 19.3458 11.8695 18.8802 11.9393C19.3458 11.66 19.7183 11.2177 19.8812 10.6822C19.4389 10.9383 18.9501 11.1245 18.4146 11.2409C17.9956 10.7986 17.3904 10.5193 16.7386 10.5193C15.4815 10.5193 14.4572 11.5436 14.4572 12.8006C14.4572 12.9869 14.4805 13.1498 14.5271 13.3128C12.6415 13.2197 10.9421 12.3118 9.80141 10.915C9.61518 11.2642 9.49878 11.6367 9.49878 12.0557C9.49878 12.8472 9.89453 13.5456 10.5231 13.9646C10.1506 13.9413 9.80141 13.8482 9.4755 13.6852V13.7085C9.4755 14.8259 10.267 15.7571 11.3145 15.9666C11.1283 16.0131 10.9188 16.0364 10.7093 16.0364C10.5696 16.0364 10.4067 16.0131 10.267 15.9899C10.5696 16.8977 11.4077 17.5728 12.4087 17.5728C11.6172 18.1781 10.6395 18.5505 9.56862 18.5505C9.38239 18.5505 9.19616 18.5505 9.0332 18.5273C10.0575 19.1791 11.2447 19.5515 12.5483 19.5515C16.7618 19.5515 19.0665 16.0597 19.0665 13.0334C19.0665 12.9403 19.0665 12.8239 19.0665 12.7308C19.5088 12.4282 19.9045 12.0324 20.2071 11.5668Z" fill="black"/>
</svg>
