<svg width="41" height="27" viewBox="0 0 41 27" fill="none" xmlns="http://www.w3.org/2000/svg">
<rect x="0.63271" y="0.90395" width="40.1489" height="25.9335" rx="4.70645" fill="white"/>
<rect x="0.63271" y="0.90395" width="40.1489" height="25.9335" rx="4.70645" stroke="#D6DCE5" stroke-width="0.1921"/>
<path d="M13.6526 10.4989C13.9192 10.1654 14.1001 9.71775 14.0523 9.26025C13.6621 9.27966 13.1859 9.5177 12.9102 9.85139C12.6627 10.1371 12.4436 10.6036 12.5007 11.0419C12.9387 11.0799 13.3764 10.8229 13.6526 10.4989Z" fill="#000008"/>
<path d="M14.0474 11.1275C13.4112 11.0896 12.8703 11.4885 12.5665 11.4885C12.2626 11.4885 11.7974 11.1466 11.2942 11.1558C10.6393 11.1654 10.0316 11.5357 9.69928 12.1246C9.01572 13.3028 9.51889 15.0504 10.1836 16.0099C10.5064 16.4847 10.8954 17.0074 11.4081 16.9886C11.8924 16.9696 12.0822 16.675 12.671 16.675C13.2593 16.675 13.4303 16.9886 13.943 16.9791C14.4746 16.9696 14.807 16.5041 15.1298 16.0289C15.5001 15.4878 15.6517 14.9653 15.6613 14.9366C15.6517 14.9271 14.636 14.5374 14.6266 13.3691C14.617 12.3908 15.4241 11.9255 15.462 11.8966C15.0063 11.2226 14.2942 11.1466 14.0474 11.1275Z" fill="#000008"/>
<path d="M19.5865 9.80354C20.9692 9.80354 21.932 10.7566 21.932 12.1443C21.932 13.5369 20.9494 14.4949 19.5519 14.4949H18.021V16.9294H16.9149V9.80354L19.5865 9.80354ZM18.021 13.5665H19.2901C20.2531 13.5665 20.8012 13.048 20.8012 12.1492C20.8012 11.2505 20.2531 10.7369 19.2951 10.7369H18.021V13.5665Z" fill="#000008"/>
<path d="M22.221 15.4529C22.221 14.5442 22.9173 13.9862 24.1519 13.9171L25.574 13.8332V13.4332C25.574 12.8554 25.1839 12.5097 24.5322 12.5097C23.9148 12.5097 23.5296 12.806 23.4358 13.2702H22.4284C22.4877 12.3319 23.2876 11.6406 24.5716 11.6406C25.8308 11.6406 26.6357 12.3072 26.6357 13.3492V16.9294H25.6135V16.0751H25.5889C25.2877 16.6529 24.6309 17.0183 23.9494 17.0183C22.9321 17.0183 22.221 16.3862 22.221 15.4529ZM25.574 14.9838V14.5739L24.295 14.6529C23.658 14.6974 23.2975 14.9789 23.2975 15.4233C23.2975 15.8776 23.6728 16.1739 24.2457 16.1739C24.9913 16.1739 25.574 15.6603 25.574 14.9838Z" fill="#000008"/>
<path d="M27.6008 18.8406V17.9763C27.6797 17.9961 27.8574 17.9961 27.9464 17.9961C28.4402 17.9961 28.7069 17.7887 28.8698 17.2554C28.8698 17.2455 28.9637 16.9393 28.9637 16.9344L27.0872 11.7344H28.2426L29.5563 15.9616H29.576L30.8897 11.7344H32.0156L30.0697 17.201C29.6255 18.4603 29.1119 18.8652 28.0354 18.8652C27.9464 18.8652 27.6797 18.8553 27.6008 18.8406Z" fill="#000008"/>
</svg>
