<svg width="42" height="27" viewBox="0 0 42 27" fill="none" xmlns="http://www.w3.org/2000/svg">
<rect x="0.875874" y="0.90395" width="40.1489" height="25.9335" rx="4.70645" fill="white"/>
<rect x="0.875874" y="0.90395" width="40.1489" height="25.9335" rx="4.70645" stroke="#D6DCE5" stroke-width="0.1921"/>
<path d="M20.0818 16.9557H19.1831V9.96259H21.5656C22.1695 9.96259 22.6843 10.1639 23.1056 10.5664C23.5362 10.969 23.7515 11.4604 23.7515 12.0409C23.7515 12.6353 23.5362 13.1268 23.1056 13.5247C22.689 13.9225 22.1741 14.1191 21.5656 14.1191H20.0818V16.9557ZM20.0818 10.8239V13.2625H21.5844C21.9401 13.2625 22.2397 13.1408 22.4737 12.9021C22.7124 12.6634 22.8341 12.3732 22.8341 12.0455C22.8341 11.7226 22.7124 11.437 22.4737 11.1983C22.2397 10.9502 21.9448 10.8285 21.5844 10.8285H20.0818V10.8239Z" fill="#3C4043"/>
<path d="M26.1012 12.0128C26.7659 12.0128 27.2901 12.1906 27.6739 12.5464C28.0578 12.9021 28.2497 13.3889 28.2497 14.0068V16.9557H27.3931V16.291H27.3556C26.9859 16.8387 26.4897 17.1101 25.8718 17.1101C25.3429 17.1101 24.9029 16.9557 24.5472 16.6421C24.1915 16.3285 24.0136 15.9399 24.0136 15.4719C24.0136 14.9757 24.2008 14.5825 24.5753 14.2923C24.9497 13.9974 25.4506 13.8523 26.0731 13.8523C26.6067 13.8523 27.0467 13.9506 27.3884 14.1472V13.9413C27.3884 13.6276 27.2667 13.3655 27.0186 13.1455C26.7705 12.9255 26.4803 12.8179 26.148 12.8179C25.6472 12.8179 25.2493 13.0285 24.9591 13.4545L24.168 12.9583C24.6034 12.3264 25.2493 12.0128 26.1012 12.0128ZM24.9404 15.4859C24.9404 15.72 25.0387 15.9165 25.2399 16.071C25.4365 16.2255 25.6706 16.305 25.9374 16.305C26.3165 16.305 26.6535 16.1646 26.9484 15.8838C27.2433 15.6029 27.3931 15.2753 27.3931 14.8961C27.1122 14.6761 26.7237 14.5638 26.2229 14.5638C25.8578 14.5638 25.5536 14.6527 25.3102 14.8259C25.0621 15.0085 24.9404 15.2285 24.9404 15.4859Z" fill="#3C4043"/>
<path d="M33.1364 12.1673L30.1407 19.0574H29.2139L30.328 16.6468L28.3527 12.1673H29.331L30.7539 15.603H30.7726L32.1581 12.1673H33.1364Z" fill="#3C4043"/>
<path d="M16.5071 13.5528C16.5071 13.2597 16.4809 12.9794 16.4322 12.7097H12.6651V14.2544L14.8347 14.2549C14.7467 14.7688 14.4635 15.2069 14.0296 15.499V16.5012H15.321C16.0751 15.8033 16.5071 14.7716 16.5071 13.5528Z" fill="#4285F4"/>
<path d="M14.03 15.4991C13.6705 15.7415 13.2076 15.8834 12.666 15.8834C11.6199 15.8834 10.7324 15.1784 10.4146 14.2282H9.08246V15.2618C9.74245 16.5714 11.0989 17.4701 12.666 17.4701C13.7492 17.4701 14.6591 17.1139 15.3214 16.5008L14.03 15.4991Z" fill="#34A853"/>
<path d="M10.2891 13.4615C10.2891 13.1947 10.3336 12.9368 10.4146 12.6943V11.6608H9.08242C8.80953 12.2023 8.65601 12.8137 8.65601 13.4615C8.65601 14.1093 8.81 14.7206 9.08242 15.2622L10.4146 14.2287C10.3336 13.9862 10.2891 13.7283 10.2891 13.4615Z" fill="#FABB05"/>
<path d="M12.666 11.0392C13.2572 11.0392 13.7866 11.2428 14.2046 11.6407L15.3491 10.4971C14.654 9.84979 13.7478 9.45239 12.666 9.45239C11.0994 9.45239 9.74241 10.3511 9.08242 11.6608L10.4146 12.6943C10.7324 11.7441 11.6199 11.0392 12.666 11.0392Z" fill="#E94235"/>
</svg>
