<svg width="41" height="27" viewBox="0 0 41 27" fill="none" xmlns="http://www.w3.org/2000/svg">
<rect x="0.14687" y="0.90395" width="40.1489" height="25.9335" rx="4.70645" fill="white"/>
<rect x="0.14687" y="0.90395" width="40.1489" height="25.9335" rx="4.70645" stroke="#D6DCE5" stroke-width="0.1921"/>
<path d="M23.0917 8.58471H17.2086V19.1567H23.0917V8.58471Z" fill="#FF5F00"/>
<path d="M17.5822 13.8707C17.5812 12.8526 17.812 11.8475 18.2569 10.9317C18.7018 10.0159 19.3492 9.21331 20.1502 8.5847C19.1583 7.80508 17.9671 7.32025 16.7127 7.18562C15.4584 7.05098 14.1914 7.27198 13.0567 7.82335C11.922 8.37473 10.9653 9.23423 10.296 10.3036C9.62667 11.373 9.27173 12.6091 9.27173 13.8707C9.27173 15.1323 9.62667 16.3684 10.296 17.4378C10.9653 18.5072 11.922 19.3667 13.0567 19.9181C14.1914 20.4695 15.4584 20.6904 16.7127 20.5558C17.9671 20.4212 19.1583 19.9363 20.1502 19.1567C19.3492 18.5281 18.7018 17.7255 18.2569 16.8097C17.812 15.8939 17.5813 14.8889 17.5822 13.8707Z" fill="#EB001B"/>
<path d="M31.0283 13.8707C31.0283 15.1323 30.6734 16.3684 30.0041 17.4378C29.3348 18.5072 28.3782 19.3667 27.2435 19.9181C26.1088 20.4694 24.8419 20.6904 23.5875 20.5558C22.3332 20.4212 21.142 19.9363 20.1502 19.1567C20.9504 18.5275 21.5973 17.7248 22.0422 16.8091C22.487 15.8934 22.7181 14.8887 22.7181 13.8707C22.7181 12.8527 22.487 11.848 22.0422 10.9323C21.5973 10.0167 20.9504 9.21395 20.1502 8.5847C21.142 7.80508 22.3332 7.32025 23.5875 7.18561C24.8419 7.05098 26.1088 7.27199 27.2435 7.82337C28.3782 8.37475 29.3348 9.23426 30.0041 10.3036C30.6734 11.373 31.0283 12.6092 31.0283 13.8707Z" fill="#F79E1B"/>
<path d="M30.3868 18.037V17.8206H30.4741V17.7765H30.2518V17.8206H30.3391V18.037H30.3868ZM30.8183 18.037V17.776H30.7502L30.6718 17.9555L30.5934 17.776H30.5253V18.037H30.5734V17.8401L30.6469 18.0099H30.6968L30.7702 17.8397V18.037H30.8183Z" fill="#F79E1B"/>
</svg>
