<svg width="41" height="27" viewBox="0 0 41 27" fill="none" xmlns="http://www.w3.org/2000/svg">
<rect x="0.38979" y="0.90395" width="40.1489" height="25.9335" rx="4.70645" fill="white"/>
<rect x="0.38979" y="0.90395" width="40.1489" height="25.9335" rx="4.70645" stroke="#D6DCE5" stroke-width="0.1921"/>
<path fill-rule="evenodd" clip-rule="evenodd" d="M9.22671 10.1256H6.92304C6.7654 10.1256 6.63133 10.2402 6.60674 10.3957L5.67502 16.3023C5.65651 16.4189 5.74678 16.5239 5.86501 16.5239H6.9648C7.12245 16.5239 7.25652 16.4094 7.2811 16.2535L7.5324 14.6604C7.55664 14.5044 7.69104 14.39 7.84836 14.39H8.57762C10.0951 14.39 10.9709 13.6557 11.1997 12.2008C11.3027 11.5642 11.2041 11.064 10.9059 10.7137C10.5785 10.3291 9.99769 10.1256 9.22671 10.1256ZM9.49248 12.2829C9.36653 13.1094 8.73493 13.1094 8.12423 13.1094H7.7766L8.02048 11.5658C8.03496 11.4726 8.1158 11.4038 8.21012 11.4038H8.36945C8.78545 11.4038 9.17792 11.4038 9.38072 11.6409C9.50153 11.7824 9.53862 11.9925 9.49248 12.2829ZM16.1129 12.2564H15.0098C14.9158 12.2564 14.8345 12.3251 14.82 12.4185L14.7713 12.727L14.6941 12.6152C14.4553 12.2686 13.9228 12.1528 13.3912 12.1528C12.1721 12.1528 11.131 13.0759 10.9282 14.371C10.8228 15.0169 10.9726 15.6346 11.3391 16.0654C11.6753 16.4614 12.1563 16.6265 12.7286 16.6265C13.7108 16.6265 14.2556 15.9949 14.2556 15.9949L14.2063 16.3015C14.1878 16.4187 14.278 16.5238 14.3956 16.5238H15.3893C15.5474 16.5238 15.6807 16.4092 15.7056 16.2534L16.3019 12.478C16.3207 12.3619 16.2308 12.2564 16.1129 12.2564ZM14.5752 14.4033C14.4687 15.0334 13.9685 15.4564 13.3306 15.4564C13.0103 15.4564 12.7541 15.3537 12.5898 15.159C12.4268 14.9658 12.3648 14.6905 12.4167 14.3841C12.5161 13.7592 13.0248 13.3225 13.653 13.3225C13.9661 13.3225 14.2208 13.4265 14.3886 13.6229C14.5566 13.8213 14.6233 14.0981 14.5752 14.4033ZM20.8796 12.2562H21.9883C22.1435 12.2562 22.2341 12.4303 22.1459 12.5577L18.4588 17.8792C18.3991 17.9654 18.3007 18.0166 18.1957 18.0166H17.0884C16.9325 18.0166 16.8415 17.8411 16.9318 17.7135L18.0798 16.0931L16.8588 12.5101C16.8166 12.3856 16.9085 12.2562 17.041 12.2562H18.1303C18.2719 12.2562 18.3967 12.3491 18.4376 12.4846L19.0856 14.6486L20.6146 12.3967C20.6745 12.3088 20.7739 12.2562 20.8796 12.2562Z" fill="#253B80"/>
<path fill-rule="evenodd" clip-rule="evenodd" d="M32.8995 16.3018L33.8449 10.2872C33.8594 10.1938 33.9403 10.1251 34.0343 10.1248H35.0987C35.2162 10.1248 35.3064 10.2301 35.2879 10.3467L34.3556 16.253C34.3312 16.4089 34.1972 16.5234 34.0393 16.5234H33.0887C32.9712 16.5234 32.8809 16.4184 32.8995 16.3018ZM25.6589 10.1251H23.3549C23.1976 10.1251 23.0635 10.2396 23.0389 10.3952L22.1072 16.3018C22.0886 16.4184 22.1789 16.5234 22.2966 16.5234H23.4788C23.5887 16.5234 23.6827 16.4433 23.6998 16.3342L23.9642 14.6599C23.9885 14.5039 24.1229 14.3895 24.2802 14.3895H25.0091C26.5269 14.3895 27.4025 13.6552 27.6315 12.2002C27.7348 11.5637 27.6355 11.0635 27.3375 10.7131C27.0103 10.3286 26.4299 10.1251 25.6589 10.1251ZM25.9247 12.2824C25.7991 13.1089 25.1674 13.1089 24.5564 13.1089H24.2091L24.4533 11.5652C24.4678 11.472 24.548 11.4033 24.6426 11.4033H24.8019C25.2176 11.4033 25.6105 11.4033 25.8131 11.6404C25.9341 11.7819 25.9709 11.992 25.9247 12.2824ZM32.5445 12.2559H31.4421C31.3474 12.2559 31.2669 12.3246 31.2527 12.418L31.204 12.7264L31.1265 12.6147C30.8877 12.268 30.3555 12.1522 29.8239 12.1522C28.6048 12.1522 27.564 13.0754 27.3612 14.3705C27.2561 15.0164 27.4053 15.6341 27.7718 16.0649C28.1086 16.4609 28.589 16.626 29.1613 16.626C30.1435 16.626 30.6881 15.9944 30.6881 15.9944L30.639 16.301C30.6205 16.4182 30.7107 16.5233 30.8291 16.5233H31.8223C31.9796 16.5233 32.1137 16.4087 32.1383 16.2528L32.7349 12.4775C32.7531 12.3614 32.6628 12.2559 32.5445 12.2559ZM31.0069 14.4027C30.9011 15.0329 30.4002 15.4559 29.7622 15.4559C29.4425 15.4559 29.1859 15.3532 29.0215 15.1585C28.8584 14.9652 28.7971 14.69 28.8484 14.3836C28.9483 13.7587 29.4564 13.322 30.0846 13.322C30.3979 13.322 30.6524 13.4259 30.8203 13.6223C30.989 13.8207 31.0557 14.0976 31.0069 14.4027Z" fill="#179BD7"/>
</svg>
