<svg width="42" height="27" viewBox="0 0 42 27" fill="none" xmlns="http://www.w3.org/2000/svg">
<rect x="0.90395" y="0.90395" width="40.1489" height="25.9335" rx="4.70645" fill="white"/>
<rect x="0.90395" y="0.90395" width="40.1489" height="25.9335" rx="4.70645" stroke="#D6DCE5" stroke-width="0.1921"/>
<path d="M20.7342 9.67549L18.8705 18.3875H16.6168L18.4808 9.67549H20.7342ZM30.216 15.3008L31.4025 12.0292L32.0853 15.3008H30.216ZM32.7305 18.3875H34.8151L32.996 9.67549H31.0719C30.6396 9.67549 30.2748 9.92696 30.1123 10.3147L26.7312 18.3875H29.0979L29.5678 17.0865H32.4592L32.7305 18.3875ZM26.8487 15.5429C26.8583 13.2436 23.6689 13.117 23.6909 12.0899C23.6975 11.7769 23.9956 11.4449 24.6466 11.3597C24.9701 11.3175 25.8593 11.2853 26.8691 11.7499L27.2645 9.90242C26.7221 9.70555 26.0242 9.51611 25.1562 9.51611C22.9288 9.51611 21.3609 10.7004 21.3477 12.3962C21.3336 13.6503 22.4669 14.3501 23.3209 14.767C24.1988 15.1941 24.4939 15.4677 24.49 15.8496C24.4842 16.4344 23.7896 16.692 23.1417 16.7022C22.0084 16.7201 21.3507 16.3964 20.8266 16.1521L20.4182 18.061C20.9446 18.3028 21.9166 18.5129 22.9249 18.5237C25.2921 18.5237 26.841 17.354 26.8487 15.5429ZM17.5138 9.67549L13.8625 18.3875H11.4798L9.68312 11.4347C9.57392 11.0065 9.47907 10.8499 9.14736 10.6693C8.60608 10.3756 7.71131 10.0996 6.92407 9.92862L6.97784 9.67549H10.8125C11.3012 9.67549 11.741 10.0009 11.8518 10.5636L12.8009 15.6053L15.1461 9.67549H17.5138Z" fill="#1434CB"/>
</svg>
